<svg xmlns="http://www.w3.org/2000/svg" viewBox="0 0 96 96" role="img" aria-labelledby="title">
  <title id="title">USDT 奖励币章</title>
  <defs>
    <linearGradient id="rim" x1=".1" y1="0" x2=".9" y2="1">
      <stop offset="0" stop-color="#f6e3a6"/>
      <stop offset=".24" stop-color="#c6973e"/>
      <stop offset=".52" stop-color="#fff0b7"/>
      <stop offset=".78" stop-color="#9b6d22"/>
      <stop offset="1" stop-color="#dfb65e"/>
    </linearGradient>
    <radialGradient id="face" cx="35%" cy="28%" r="78%">
      <stop offset="0" stop-color="#39bd98"/>
      <stop offset=".62" stop-color="#17866e"/>
      <stop offset="1" stop-color="#0c584b"/>
    </radialGradient>
  </defs>
  <circle cx="48" cy="51" r="40" fill="#061c1a" opacity=".38"/>
  <circle cx="48" cy="45" r="41" fill="url(#rim)"/>
  <circle cx="48" cy="45" r="34" fill="url(#face)" stroke="#fff1b8" stroke-opacity=".5"/>
  <path d="M27 24h42v10H53v7.1c11 .6 19 2.5 19 4.9 0 2.8-10.7 5-24 5s-24-2.2-24-5c0-2.4 8-4.3 19-4.9V34H27Zm16 20.9c-7.2.4-12 1.4-12 2.5 0 1.5 7.6 2.7 17 2.7s17-1.2 17-2.7c0-1.1-4.8-2.1-12-2.5v21H43Z" fill="#fff"/>
  <path d="M25 69c13 9 33 10 47-2" fill="none" stroke="#fff" stroke-linecap="round" stroke-opacity=".18" stroke-width="2"/>
</svg>
