<svg xmlns="http://www.w3.org/2000/svg" viewBox="0 0 1440 900" style="background:#0a0a1a">
  <defs>
    <linearGradient id="bgGrad" x1="0" y1="0" x2="1" y2="1"><stop offset="0%" stop-color="#0a0a1a"/><stop offset="100%" stop-color="#12122a"/></linearGradient>
    <linearGradient id="goldGrad" x1="0" y1="0" x2="1" y2="1"><stop offset="0%" stop-color="#fbbf24"/><stop offset="100%" stop-color="#d97706"/></linearGradient>
    <linearGradient id="btnGrad" x1="0" y1="0" x2="1" y2="0"><stop offset="0%" stop-color="#f59e0b"/><stop offset="100%" stop-color="#ef4444"/></linearGradient>
    <filter id="cardShadow"><feDropShadow dx="0" dy="4" stdDeviation="12" flood-color="#000" flood-opacity="0.4"/></filter>
    <filter id="btnShadow"><feDropShadow dx="0" dy="6" stdDeviation="16" flood-color="#fbbf24" flood-opacity="0.2"/></filter>
  </defs>
  <rect width="1440" height="900" fill="url(#bgGrad)"/>

  <!-- ===== TOP NAV BAR ===== -->
  <rect x="0" y="0" width="1440" height="64" fill="#141430" opacity="0.95"/>
  <line x1="0" y1="64" x2="1440" y2="64" stroke="#fbbf24" stroke-width="1" opacity="0.15"/>
  <text x="40" y="40" fill="#fbbf24" font-size="18" font-weight="900" letter-spacing="2">🎲 LUCKY JUMP</text>
  <text x="250" y="40" fill="#7b75a3" font-size="11">幸运跳棋大冒险</text>
  <g transform="translate(1200,20)">
    <rect x="0" y="0" width="200" height="28" rx="14" fill="#1e1b4b"/>
    <text x="20" y="19" fill="#a78bfa" font-size="11">admin@example.com</text>
    <circle cx="180" cy="14" r="7" fill="#34d399"/>
  </g>

  <!-- ===== PAGE TITLE ===== -->
  <text x="40" y="105" fill="#fff" font-size="22" font-weight="900" letter-spacing="1">游戏棋盘</text>
  <line x1="40" y1="118" x2="120" y2="118" stroke="url(#goldGrad)" stroke-width="2"/>

  <!-- ===== STATS BAR ===== -->
  <g transform="translate(40,140)">
    <rect x="0" y="0" width="170" height="70" rx="14" fill="#1e1b4b" stroke="#2d2a5e" stroke-width="1" filter="url(#cardShadow)"/>
    <text x="85" y="28" text-anchor="middle" fill="#7b75a3" font-size="11">剩余机会</text>
    <text x="85" y="52" text-anchor="middle" fill="#fbbf24" font-size="24" font-weight="900">12</text>

    <rect x="184" y="0" width="170" height="70" rx="14" fill="#1e1b4b" stroke="#2d2a5e" stroke-width="1" filter="url(#cardShadow)"/>
    <text x="269" y="28" text-anchor="middle" fill="#7b75a3" font-size="11">完成圈数</text>
    <text x="269" y="52" text-anchor="middle" fill="#34d399" font-size="24" font-weight="900">3</text>

    <rect x="368" y="0" width="170" height="70" rx="14" fill="#1e1b4b" stroke="#2d2a5e" stroke-width="1" filter="url(#cardShadow)"/>
    <text x="453" y="28" text-anchor="middle" fill="#7b75a3" font-size="11">当前格子</text>
    <text x="453" y="52" text-anchor="middle" fill="#38bdf8" font-size="24" font-weight="900">20</text>

    <rect x="552" y="0" width="170" height="70" rx="14" fill="#1e1b4b" stroke="#2d2a5e" stroke-width="1" filter="url(#cardShadow)"/>
    <text x="637" y="28" text-anchor="middle" fill="#7b75a3" font-size="11">VIP 等级</text>
    <text x="637" y="52" text-anchor="middle" fill="#fbbf24" font-size="24" font-weight="900">⭐⭐</text>
  </g>

  <!-- ===== MAIN BOARD AREA ===== -->
  <g transform="translate(40,225)">
    <rect x="0" y="0" width="760" height="635" rx="20" fill="#1c1c3a" stroke="#2d2a5e" stroke-width="1" filter="url(#cardShadow)"/>
    <text x="380" y="320" text-anchor="middle" fill="#3b3780" font-size="22">🎲 环形棋盘</text>
    <text x="380" y="350" text-anchor="middle" fill="#2d2a5e" font-size="13">详见 01-board-redesign.svg</text>
  </g>

  <!-- ===== RIGHT SIDEBAR ===== -->
  <text x="830" y="105" fill="#fff" font-size="18" font-weight="900" letter-spacing="1">任务中心</text>
  <line x1="830" y1="118" x2="900" y2="118" stroke="url(#goldGrad)" stroke-width="2"/>

  <!-- Task cards -->
  <g transform="translate(830,140)">
    <rect x="0" y="0" width="570" height="80" rx="14" fill="#1e1b4b" stroke="#2d2a5e" stroke-width="1" filter="url(#cardShadow)"/>
    <rect x="0" y="0" width="570" height="80" rx="14" fill="url(#goldGrad)" opacity="0.03"/>
    <text x="25" y="32" fill="#fff" font-size="24">📅</text>
    <text x="75" y="34" fill="#e2e0f3" font-size="14" font-weight="bold">每日签到</text>
    <text x="75" y="54" fill="#7b75a3" font-size="11">普通 5 次机会 · 连续签到第 7 天获得 10 次</text>
    <rect x="470" y="20" width="80" height="38" rx="10" fill="url(#goldGrad)"/>
    <text x="510" y="45" text-anchor="middle" fill="#1e1b4b" font-size="13" font-weight="bold">签 到</text>

    <rect x="0" y="94" width="570" height="80" rx="14" fill="#1e1b4b" stroke="#2d2a5e" stroke-width="1" filter="url(#cardShadow)"/>
    <text x="25" y="126" fill="#fff" font-size="24">💳</text>
    <text x="75" y="128" fill="#e2e0f3" font-size="14" font-weight="bold">充值奖励</text>
    <text x="75" y="148" fill="#7b75a3" font-size="11">每充值 10 USDT 获得 10 次机会</text>
    <rect x="470" y="114" width="80" height="38" rx="10" fill="url(#goldGrad)"/>
    <text x="510" y="139" text-anchor="middle" fill="#1e1b4b" font-size="13" font-weight="bold">充 值</text>

    <rect x="0" y="188" width="570" height="80" rx="14" fill="#1e1b4b" stroke="#2d2a5e" stroke-width="1" filter="url(#cardShadow)"/>
    <text x="25" y="220" fill="#fff" font-size="24">👥</text>
    <text x="75" y="222" fill="#e2e0f3" font-size="14" font-weight="bold">邀请好友</text>
    <text x="75" y="242" fill="#7b75a3" font-size="11">每邀请 1 位好友注册获得 5 次机会</text>
    <rect x="470" y="208" width="80" height="38" rx="10" fill="url(#goldGrad)"/>
    <text x="510" y="236" text-anchor="middle" fill="#1e1b4b" font-size="13" font-weight="bold">邀 请</text>

    <rect x="0" y="282" width="570" height="80" rx="14" fill="#1e1b4b" stroke="#2d2a5e" stroke-width="1" filter="url(#cardShadow)"/>
    <text x="25" y="314" fill="#fff" font-size="24">🎁</text>
    <text x="75" y="316" fill="#e2e0f3" font-size="14" font-weight="bold">好友首充奖励</text>
    <text x="75" y="336" fill="#7b75a3" font-size="11">好友首次充值达标获得 10 次机会</text>
    <rect x="470" y="302" width="80" height="38" rx="10" fill="#1e1b4b" stroke="#3b3780" stroke-width="1"/>
    <text x="510" y="307" text-anchor="middle" fill="#7b75a3" font-size="11">进行中</text>
    <text x="510" y="325" text-anchor="middle" fill="#7b75a3" font-size="10">0人</text>
  </g>

  <!-- Leaderboard -->
  <text x="830" y="500" fill="#fff" font-size="18" font-weight="900" letter-spacing="1">排行榜</text>
  <line x1="830" y1="513" x2="900" y2="513" stroke="url(#goldGrad)" stroke-width="2"/>

  <g transform="translate(830,530)">
    <rect x="0" y="0" width="570" height="330" rx="14" fill="#1e1b4b" stroke="#2d2a5e" stroke-width="1" filter="url(#cardShadow)"/>

    <!-- TOP 3 cards -->
    <g transform="translate(20,20)">
      <rect x="0" y="0" width="165" height="110" rx="12" fill="#fbbf24" opacity="0.06"/>
      <text x="82" y="30" text-anchor="middle" fill="#fbbf24" font-size="28">🥇</text>
      <text x="82" y="55" text-anchor="middle" fill="#fff" font-size="16" font-weight="bold">王***</text>
      <text x="82" y="75" text-anchor="middle" fill="#fbbf24" font-size="13">5 圈 · 32 格</text>
      <text x="82" y="95" text-anchor="middle" fill="#fbbf24" font-size="10">iPhone 17 Pro</text>
    </g>
    <g transform="translate(202,20)">
      <rect x="0" y="0" width="165" height="110" rx="12" fill="#c0c0c0" opacity="0.04"/>
      <text x="82" y="30" text-anchor="middle" fill="#c0c0c0" font-size="28">🥈</text>
      <text x="82" y="55" text-anchor="middle" fill="#d1d5db" font-size="16" font-weight="bold">李***</text>
      <text x="82" y="75" text-anchor="middle" fill="#d1d5db" font-size="13">4 圈 · 28 格</text>
      <text x="82" y="95" text-anchor="middle" fill="#c0c0c0" font-size="10">500 USDT</text>
    </g>
    <g transform="translate(384,20)">
      <rect x="0" y="0" width="165" height="110" rx="12" fill="#d97706" opacity="0.04"/>
      <text x="82" y="30" text-anchor="middle" fill="#d97706" font-size="28">🥉</text>
      <text x="82" y="55" text-anchor="middle" fill="#d1d5db" font-size="16" font-weight="bold">张***</text>
      <text x="82" y="75" text-anchor="middle" fill="#d1d5db" font-size="13">4 圈 · 15 格</text>
      <text x="82" y="95" text-anchor="middle" fill="#d97706" font-size="10">400 USDT</text>
    </g>

    <!-- Rank list -->
    <g transform="translate(20,148)">
      <text x="10" y="0" fill="#7b75a3" font-size="12"> 4</text><text x="48" y="0" fill="#9ca3af" font-size="12">刘***</text><text x="480" y="0" text-anchor="end" fill="#9ca3af" font-size="12">3圈 · 30格</text>
      <line x1="10" y1="14" x2="520" y2="14" stroke="#2d2a5e" stroke-width="0.5"/>

      <text x="10" y="36" fill="#7b75a3" font-size="12"> 5</text><text x="48" y="36" fill="#9ca3af" font-size="12">陈***</text><text x="480" y="36" text-anchor="end" fill="#9ca3af" font-size="12">3圈 · 28格</text>
      <line x1="10" y1="50" x2="520" y2="50" stroke="#2d2a5e" stroke-width="0.5"/>

      <rect x="2" y="56" width="530" height="30" rx="8" fill="#fbbf24" opacity="0.06"/>
      <text x="10" y="76" fill="#fbbf24" font-size="12"> 6</text><text x="48" y="76" fill="#fbbf24" font-size="12" font-weight="bold">你 ⬅</text><text x="480" y="76" text-anchor="end" fill="#fbbf24" font-size="12">2圈 · 24格</text>

      <text x="10" y="108" fill="#7b75a3" font-size="12"> 7</text><text x="48" y="108" fill="#9ca3af" font-size="12">赵***</text><text x="480" y="108" text-anchor="end" fill="#9ca3af" font-size="12">2圈 · 18格</text>
      <line x1="10" y1="122" x2="520" y2="122" stroke="#2d2a5e" stroke-width="0.5"/>

      <text x="10" y="144" fill="#7b75a3" font-size="12"> 8</text><text x="48" y="144" fill="#9ca3af" font-size="12">周***</text><text x="480" y="144" text-anchor="end" fill="#9ca3af" font-size="12">2圈 · 15格</text>
    </g>
  </g>
</svg>
